<mxfile host="app.diagrams.net" modified="2020-04-23T02:39:42.841Z" agent="5.0 (Windows NT 10.0; Win64; x64) AppleWebKit/537.36 (KHTML, like Gecko) Chrome/78.0.3904.108 Safari/537.36" etag="0PRSSsSAQBNe11Wech-9" version="13.0.1" type="github">
  <diagram id="nlc1FG4edujuOwbMcdIp" name="Page-1">
    <mxGraphModel dx="990" dy="484" grid="1" gridSize="10" guides="1" tooltips="1" connect="1" arrows="1" fold="1" page="1" pageScale="1" pageWidth="2100" pageHeight="2200" math="0" shadow="0">
      <root>
        <mxCell id="0" />
        <mxCell id="1" parent="0" />
        <mxCell id="FU6Oj2-tmfLEPDodRu47-1" value="" style="rounded=0;whiteSpace=wrap;html=1;strokeColor=#A3A3A3;" vertex="1" parent="1">
          <mxGeometry x="890" y="870" width="620" height="510" as="geometry" />
        </mxCell>
        <mxCell id="FU6Oj2-tmfLEPDodRu47-2" value="&lt;font style=&quot;font-size: 10px&quot;&gt;1:*&lt;/font&gt;" style="rounded=0;orthogonalLoop=1;jettySize=auto;html=1;entryX=0.5;entryY=0;entryDx=0;entryDy=0;startArrow=none;startFill=0;endArrow=classic;endFill=1;strokeColor=#1A1A1A;strokeWidth=1;fontSize=14;" edge="1" parent="1" source="FU6Oj2-tmfLEPDodRu47-8" target="FU6Oj2-tmfLEPDodRu47-15">
          <mxGeometry relative="1" as="geometry" />
        </mxCell>
        <mxCell id="FU6Oj2-tmfLEPDodRu47-3" style="edgeStyle=none;rounded=0;orthogonalLoop=1;jettySize=auto;html=1;entryX=-0.035;entryY=0.393;entryDx=0;entryDy=0;startArrow=none;startFill=0;endArrow=classic;endFill=1;strokeColor=#1A1A1A;strokeWidth=1;fontSize=14;exitX=1;exitY=0.5;exitDx=0;exitDy=0;dashed=1;entryPerimeter=0;" edge="1" parent="1" source="FU6Oj2-tmfLEPDodRu47-16" target="FU6Oj2-tmfLEPDodRu47-24">
          <mxGeometry relative="1" as="geometry">
            <mxPoint x="1619" y="1208" as="sourcePoint" />
            <mxPoint x="1550" y="1134.5" as="targetPoint" />
          </mxGeometry>
        </mxCell>
        <mxCell id="FU6Oj2-tmfLEPDodRu47-4" style="edgeStyle=none;rounded=0;orthogonalLoop=1;jettySize=auto;html=1;entryX=0;entryY=0.25;entryDx=0;entryDy=0;dashed=1;startArrow=none;startFill=0;endArrow=classic;endFill=1;strokeColor=#1A1A1A;strokeWidth=1;fontSize=14;exitX=1;exitY=0.5;exitDx=0;exitDy=0;" edge="1" parent="1" source="FU6Oj2-tmfLEPDodRu47-16" target="FU6Oj2-tmfLEPDodRu47-23">
          <mxGeometry relative="1" as="geometry">
            <mxPoint x="1619" y="1208" as="sourcePoint" />
            <mxPoint x="1550" y="1195.5" as="targetPoint" />
          </mxGeometry>
        </mxCell>
        <mxCell id="FU6Oj2-tmfLEPDodRu47-5" style="edgeStyle=none;rounded=0;orthogonalLoop=1;jettySize=auto;html=1;entryX=0;entryY=0.5;entryDx=0;entryDy=0;dashed=1;startArrow=none;startFill=0;endArrow=classic;endFill=1;strokeColor=#1A1A1A;strokeWidth=1;fontSize=14;exitX=1;exitY=0.5;exitDx=0;exitDy=0;" edge="1" parent="1" source="FU6Oj2-tmfLEPDodRu47-16" target="FU6Oj2-tmfLEPDodRu47-22">
          <mxGeometry relative="1" as="geometry">
            <mxPoint x="1619" y="1208" as="sourcePoint" />
            <mxPoint x="1549.5" y="1256.078" as="targetPoint" />
          </mxGeometry>
        </mxCell>
        <mxCell id="FU6Oj2-tmfLEPDodRu47-6" style="edgeStyle=none;rounded=0;orthogonalLoop=1;jettySize=auto;html=1;entryX=0;entryY=0.5;entryDx=0;entryDy=0;dashed=1;startArrow=none;startFill=0;endArrow=classic;endFill=1;strokeColor=#1A1A1A;strokeWidth=1;fontSize=14;exitX=1;exitY=0.5;exitDx=0;exitDy=0;" edge="1" parent="1" source="FU6Oj2-tmfLEPDodRu47-16" target="FU6Oj2-tmfLEPDodRu47-26">
          <mxGeometry relative="1" as="geometry">
            <mxPoint x="1619" y="1208" as="sourcePoint" />
            <mxPoint x="1550" y="1311" as="targetPoint" />
          </mxGeometry>
        </mxCell>
        <mxCell id="FU6Oj2-tmfLEPDodRu47-7" value="&lt;font style=&quot;font-size: 11px&quot;&gt;1:1&lt;/font&gt;" style="edgeStyle=none;rounded=0;orthogonalLoop=1;jettySize=auto;html=1;entryX=0.5;entryY=0;entryDx=0;entryDy=0;startArrow=none;startFill=0;endArrow=classic;endFill=1;strokeColor=#1A1A1A;strokeWidth=1;fontSize=14;" edge="1" parent="1" source="FU6Oj2-tmfLEPDodRu47-15" target="FU6Oj2-tmfLEPDodRu47-64">
          <mxGeometry relative="1" as="geometry" />
        </mxCell>
        <mxCell id="FU6Oj2-tmfLEPDodRu47-8" value="商户(电商实体)" style="swimlane;fontStyle=0;childLayout=stackLayout;horizontal=1;startSize=26;horizontalStack=0;resizeParent=1;resizeParentMax=0;resizeLast=0;collapsible=1;marginBottom=0;fillColor=#f8cecc;strokeColor=#b85450;" vertex="1" parent="1">
          <mxGeometry x="1280" y="910" width="158" height="104" as="geometry" />
        </mxCell>
        <mxCell id="FU6Oj2-tmfLEPDodRu47-9" value="业务目标实体id(门店,供应商等)" style="text;strokeColor=none;fillColor=none;align=left;verticalAlign=top;spacingLeft=4;spacingRight=4;overflow=hidden;rotatable=0;points=[[0,0.5],[1,0.5]];portConstraint=eastwest;" vertex="1" parent="FU6Oj2-tmfLEPDodRu47-8">
          <mxGeometry y="26" width="158" height="26" as="geometry" />
        </mxCell>
        <mxCell id="FU6Oj2-tmfLEPDodRu47-10" value="业务目标业务类型" style="text;strokeColor=none;fillColor=none;align=left;verticalAlign=top;spacingLeft=4;spacingRight=4;overflow=hidden;rotatable=0;points=[[0,0.5],[1,0.5]];portConstraint=eastwest;" vertex="1" parent="FU6Oj2-tmfLEPDodRu47-8">
          <mxGeometry y="52" width="158" height="26" as="geometry" />
        </mxCell>
        <mxCell id="FU6Oj2-tmfLEPDodRu47-11" value="企业客户号" style="text;strokeColor=none;fillColor=none;spacingLeft=4;spacingRight=4;overflow=hidden;rotatable=0;points=[[0,0.5],[1,0.5]];portConstraint=eastwest;fontSize=12;" vertex="1" parent="FU6Oj2-tmfLEPDodRu47-8">
          <mxGeometry y="78" width="158" height="26" as="geometry" />
        </mxCell>
        <mxCell id="FU6Oj2-tmfLEPDodRu47-12" value="门店" style="swimlane;fontStyle=0;childLayout=stackLayout;horizontal=1;startSize=26;fillColor=none;horizontalStack=0;resizeParent=1;resizeParentMax=0;resizeLast=0;collapsible=1;marginBottom=0;" vertex="1" parent="1">
          <mxGeometry x="1560" y="900" width="100" height="52" as="geometry" />
        </mxCell>
        <mxCell id="FU6Oj2-tmfLEPDodRu47-13" value="门店id" style="text;strokeColor=none;fillColor=none;align=left;verticalAlign=top;spacingLeft=4;spacingRight=4;overflow=hidden;rotatable=0;points=[[0,0.5],[1,0.5]];portConstraint=eastwest;" vertex="1" parent="FU6Oj2-tmfLEPDodRu47-12">
          <mxGeometry y="26" width="100" height="26" as="geometry" />
        </mxCell>
        <mxCell id="FU6Oj2-tmfLEPDodRu47-14" value="供应商" style="swimlane;fontStyle=0;childLayout=stackLayout;horizontal=1;startSize=26;fillColor=none;horizontalStack=0;resizeParent=1;resizeParentMax=0;resizeLast=0;collapsible=1;marginBottom=0;" vertex="1" parent="1">
          <mxGeometry x="1560" y="962" width="100" height="52" as="geometry" />
        </mxCell>
        <mxCell id="FU6Oj2-tmfLEPDodRu47-15" value="用户(包括和电商主体关系)" style="swimlane;fontStyle=0;childLayout=stackLayout;horizontal=1;startSize=26;fillColor=#f5f5f5;horizontalStack=0;resizeParent=1;resizeParentMax=0;resizeLast=0;collapsible=1;marginBottom=0;strokeColor=#666666;fontColor=#333333;fontSize=10;" vertex="1" parent="1">
          <mxGeometry x="1279" y="1057" width="159" height="156" as="geometry" />
        </mxCell>
        <mxCell id="FU6Oj2-tmfLEPDodRu47-16" value="用户id(userId)" style="text;strokeColor=none;fillColor=none;align=left;verticalAlign=top;spacingLeft=4;spacingRight=4;overflow=hidden;rotatable=0;points=[[0,0.5],[1,0.5]];portConstraint=eastwest;" vertex="1" parent="FU6Oj2-tmfLEPDodRu47-15">
          <mxGeometry y="26" width="159" height="26" as="geometry" />
        </mxCell>
        <mxCell id="FU6Oj2-tmfLEPDodRu47-17" value="归属电商主体" style="text;strokeColor=none;fillColor=none;align=left;verticalAlign=top;spacingLeft=4;spacingRight=4;overflow=hidden;rotatable=0;points=[[0,0.5],[1,0.5]];portConstraint=eastwest;" vertex="1" parent="FU6Oj2-tmfLEPDodRu47-15">
          <mxGeometry y="52" width="159" height="26" as="geometry" />
        </mxCell>
        <mxCell id="FU6Oj2-tmfLEPDodRu47-18" value="账号id(userId)" style="text;strokeColor=none;fillColor=none;align=left;verticalAlign=top;spacingLeft=4;spacingRight=4;overflow=hidden;rotatable=0;points=[[0,0.5],[1,0.5]];portConstraint=eastwest;" vertex="1" parent="FU6Oj2-tmfLEPDodRu47-15">
          <mxGeometry y="78" width="159" height="26" as="geometry" />
        </mxCell>
        <mxCell id="FU6Oj2-tmfLEPDodRu47-19" value="身份类型" style="text;strokeColor=none;fillColor=none;align=left;verticalAlign=top;spacingLeft=4;spacingRight=4;overflow=hidden;rotatable=0;points=[[0,0.5],[1,0.5]];portConstraint=eastwest;" vertex="1" parent="FU6Oj2-tmfLEPDodRu47-15">
          <mxGeometry y="104" width="159" height="26" as="geometry" />
        </mxCell>
        <mxCell id="FU6Oj2-tmfLEPDodRu47-20" value="个人客户号" style="text;strokeColor=none;fillColor=none;align=left;verticalAlign=top;spacingLeft=4;spacingRight=4;overflow=hidden;rotatable=0;points=[[0,0.5],[1,0.5]];portConstraint=eastwest;fontColor=#FF0000;" vertex="1" parent="FU6Oj2-tmfLEPDodRu47-15">
          <mxGeometry y="130" width="159" height="26" as="geometry" />
        </mxCell>
        <mxCell id="FU6Oj2-tmfLEPDodRu47-21" value="C端用户" style="swimlane;fontStyle=0;childLayout=stackLayout;horizontal=1;startSize=26;fillColor=#f8cecc;horizontalStack=0;resizeParent=1;resizeParentMax=0;resizeLast=0;collapsible=1;marginBottom=0;strokeColor=#b85450;" vertex="1" parent="1">
          <mxGeometry x="1560" y="1180" width="100" height="52" as="geometry" />
        </mxCell>
        <mxCell id="FU6Oj2-tmfLEPDodRu47-22" value="用户id" style="text;strokeColor=none;fillColor=none;align=left;verticalAlign=top;spacingLeft=4;spacingRight=4;overflow=hidden;rotatable=0;points=[[0,0.5],[1,0.5]];portConstraint=eastwest;" vertex="1" parent="FU6Oj2-tmfLEPDodRu47-21">
          <mxGeometry y="26" width="100" height="26" as="geometry" />
        </mxCell>
        <mxCell id="FU6Oj2-tmfLEPDodRu47-23" value="服务商用户" style="swimlane;fontStyle=0;childLayout=stackLayout;horizontal=1;startSize=26;fillColor=none;horizontalStack=0;resizeParent=1;resizeParentMax=0;resizeLast=0;collapsible=1;marginBottom=0;" vertex="1" parent="1">
          <mxGeometry x="1560" y="1120" width="100" height="52" as="geometry" />
        </mxCell>
        <mxCell id="FU6Oj2-tmfLEPDodRu47-24" value="供应商用户" style="swimlane;fontStyle=0;childLayout=stackLayout;horizontal=1;startSize=26;fillColor=none;horizontalStack=0;resizeParent=1;resizeParentMax=0;resizeLast=0;collapsible=1;marginBottom=0;" vertex="1" parent="1">
          <mxGeometry x="1560" y="1050.5" width="100" height="53" as="geometry" />
        </mxCell>
        <mxCell id="FU6Oj2-tmfLEPDodRu47-25" value="门店用户" style="swimlane;fontStyle=0;childLayout=stackLayout;horizontal=1;startSize=26;fillColor=none;horizontalStack=0;resizeParent=1;resizeParentMax=0;resizeLast=0;collapsible=1;marginBottom=0;" vertex="1" parent="1">
          <mxGeometry x="1560" y="1239" width="100" height="52" as="geometry" />
        </mxCell>
        <mxCell id="FU6Oj2-tmfLEPDodRu47-26" value="门店id" style="text;strokeColor=none;fillColor=none;align=left;verticalAlign=top;spacingLeft=4;spacingRight=4;overflow=hidden;rotatable=0;points=[[0,0.5],[1,0.5]];portConstraint=eastwest;" vertex="1" parent="FU6Oj2-tmfLEPDodRu47-25">
          <mxGeometry y="26" width="100" height="26" as="geometry" />
        </mxCell>
        <mxCell id="FU6Oj2-tmfLEPDodRu47-27" value="企业客户" style="swimlane;fontStyle=0;childLayout=stackLayout;horizontal=1;startSize=26;horizontalStack=0;resizeParent=1;resizeParentMax=0;resizeLast=0;collapsible=1;marginBottom=0;align=center;fontSize=13;fillColor=#f8cecc;strokeColor=#b85450;" vertex="1" parent="1">
          <mxGeometry x="949.9999999999999" y="900" width="160" height="180" as="geometry" />
        </mxCell>
        <mxCell id="FU6Oj2-tmfLEPDodRu47-28" value="企业客户号" style="shape=partialRectangle;top=0;left=0;right=0;bottom=1;align=left;verticalAlign=middle;fillColor=none;spacingLeft=34;spacingRight=4;overflow=hidden;rotatable=0;points=[[0,0.5],[1,0.5]];portConstraint=eastwest;dropTarget=0;fontStyle=5;fontSize=12;" vertex="1" parent="FU6Oj2-tmfLEPDodRu47-27">
          <mxGeometry y="26" width="160" height="30" as="geometry" />
        </mxCell>
        <mxCell id="FU6Oj2-tmfLEPDodRu47-29" value="PK" style="shape=partialRectangle;top=0;left=0;bottom=0;fillColor=none;align=left;verticalAlign=middle;spacingLeft=4;spacingRight=4;overflow=hidden;rotatable=0;points=[];portConstraint=eastwest;part=1;fontSize=12;" vertex="1" connectable="0" parent="FU6Oj2-tmfLEPDodRu47-28">
          <mxGeometry width="30" height="30" as="geometry" />
        </mxCell>
        <mxCell id="FU6Oj2-tmfLEPDodRu47-30" value="法人客户号" style="shape=partialRectangle;top=0;left=0;right=0;bottom=0;align=left;verticalAlign=top;fillColor=none;spacingLeft=34;spacingRight=4;overflow=hidden;rotatable=0;points=[[0,0.5],[1,0.5]];portConstraint=eastwest;dropTarget=0;fontSize=12;fontStyle=1" vertex="1" parent="FU6Oj2-tmfLEPDodRu47-27">
          <mxGeometry y="56" width="160" height="26" as="geometry" />
        </mxCell>
        <mxCell id="FU6Oj2-tmfLEPDodRu47-31" value="" style="shape=partialRectangle;top=0;left=0;bottom=0;fillColor=none;align=left;verticalAlign=top;spacingLeft=4;spacingRight=4;overflow=hidden;rotatable=0;points=[];portConstraint=eastwest;part=1;fontSize=12;" vertex="1" connectable="0" parent="FU6Oj2-tmfLEPDodRu47-30">
          <mxGeometry width="30" height="26" as="geometry" />
        </mxCell>
        <mxCell id="FU6Oj2-tmfLEPDodRu47-32" value="企业名称" style="shape=partialRectangle;top=0;left=0;right=0;bottom=0;align=left;verticalAlign=top;fillColor=none;spacingLeft=34;spacingRight=4;overflow=hidden;rotatable=0;points=[[0,0.5],[1,0.5]];portConstraint=eastwest;dropTarget=0;fontSize=12;" vertex="1" parent="FU6Oj2-tmfLEPDodRu47-27">
          <mxGeometry y="82" width="160" height="26" as="geometry" />
        </mxCell>
        <mxCell id="FU6Oj2-tmfLEPDodRu47-33" value="" style="shape=partialRectangle;top=0;left=0;bottom=0;fillColor=none;align=left;verticalAlign=top;spacingLeft=4;spacingRight=4;overflow=hidden;rotatable=0;points=[];portConstraint=eastwest;part=1;fontSize=12;" vertex="1" connectable="0" parent="FU6Oj2-tmfLEPDodRu47-32">
          <mxGeometry width="30" height="26" as="geometry" />
        </mxCell>
        <mxCell id="FU6Oj2-tmfLEPDodRu47-34" value="营业执照号码" style="shape=partialRectangle;top=0;left=0;right=0;bottom=0;align=left;verticalAlign=top;fillColor=none;spacingLeft=34;spacingRight=4;overflow=hidden;rotatable=0;points=[[0,0.5],[1,0.5]];portConstraint=eastwest;dropTarget=0;fontSize=12;" vertex="1" parent="FU6Oj2-tmfLEPDodRu47-27">
          <mxGeometry y="108" width="160" height="26" as="geometry" />
        </mxCell>
        <mxCell id="FU6Oj2-tmfLEPDodRu47-35" value="" style="shape=partialRectangle;top=0;left=0;bottom=0;fillColor=none;align=left;verticalAlign=top;spacingLeft=4;spacingRight=4;overflow=hidden;rotatable=0;points=[];portConstraint=eastwest;part=1;fontSize=12;" vertex="1" connectable="0" parent="FU6Oj2-tmfLEPDodRu47-34">
          <mxGeometry width="30" height="26" as="geometry" />
        </mxCell>
        <mxCell id="FU6Oj2-tmfLEPDodRu47-36" value="组织机构代码" style="shape=partialRectangle;top=0;left=0;right=0;bottom=0;align=left;verticalAlign=top;fillColor=none;spacingLeft=34;spacingRight=4;overflow=hidden;rotatable=0;points=[[0,0.5],[1,0.5]];portConstraint=eastwest;dropTarget=0;fontSize=12;" vertex="1" parent="FU6Oj2-tmfLEPDodRu47-27">
          <mxGeometry y="134" width="160" height="46" as="geometry" />
        </mxCell>
        <mxCell id="FU6Oj2-tmfLEPDodRu47-37" value="" style="shape=partialRectangle;top=0;left=0;bottom=0;fillColor=none;align=left;verticalAlign=top;spacingLeft=4;spacingRight=4;overflow=hidden;rotatable=0;points=[];portConstraint=eastwest;part=1;fontSize=12;" vertex="1" connectable="0" parent="FU6Oj2-tmfLEPDodRu47-36">
          <mxGeometry width="30" height="46" as="geometry" />
        </mxCell>
        <mxCell id="FU6Oj2-tmfLEPDodRu47-38" value="个人客户&#xa;(法人/自然人)" style="swimlane;fontStyle=0;childLayout=stackLayout;horizontal=1;startSize=37;horizontalStack=0;resizeParent=1;resizeParentMax=0;resizeLast=0;collapsible=1;marginBottom=0;align=center;fontSize=13;fillColor=#f8cecc;strokeColor=#b85450;" vertex="1" parent="1">
          <mxGeometry x="949.9999999999999" y="1153" width="160" height="155" as="geometry" />
        </mxCell>
        <mxCell id="FU6Oj2-tmfLEPDodRu47-39" value="个人客户号" style="shape=partialRectangle;top=0;left=0;right=0;bottom=1;align=left;verticalAlign=middle;fillColor=none;spacingLeft=34;spacingRight=4;overflow=hidden;rotatable=0;points=[[0,0.5],[1,0.5]];portConstraint=eastwest;dropTarget=0;fontStyle=5;fontSize=12;" vertex="1" parent="FU6Oj2-tmfLEPDodRu47-38">
          <mxGeometry y="37" width="160" height="30" as="geometry" />
        </mxCell>
        <mxCell id="FU6Oj2-tmfLEPDodRu47-40" value="PK" style="shape=partialRectangle;top=0;left=0;bottom=0;fillColor=none;align=left;verticalAlign=middle;spacingLeft=4;spacingRight=4;overflow=hidden;rotatable=0;points=[];portConstraint=eastwest;part=1;fontSize=12;" vertex="1" connectable="0" parent="FU6Oj2-tmfLEPDodRu47-39">
          <mxGeometry width="30" height="30" as="geometry" />
        </mxCell>
        <mxCell id="FU6Oj2-tmfLEPDodRu47-41" value="身份证号" style="shape=partialRectangle;top=0;left=0;right=0;bottom=0;align=left;verticalAlign=top;fillColor=none;spacingLeft=34;spacingRight=4;overflow=hidden;rotatable=0;points=[[0,0.5],[1,0.5]];portConstraint=eastwest;dropTarget=0;fontSize=12;" vertex="1" parent="FU6Oj2-tmfLEPDodRu47-38">
          <mxGeometry y="67" width="160" height="26" as="geometry" />
        </mxCell>
        <mxCell id="FU6Oj2-tmfLEPDodRu47-42" value="" style="shape=partialRectangle;top=0;left=0;bottom=0;fillColor=none;align=left;verticalAlign=top;spacingLeft=4;spacingRight=4;overflow=hidden;rotatable=0;points=[];portConstraint=eastwest;part=1;fontSize=12;" vertex="1" connectable="0" parent="FU6Oj2-tmfLEPDodRu47-41">
          <mxGeometry width="30" height="26" as="geometry" />
        </mxCell>
        <mxCell id="FU6Oj2-tmfLEPDodRu47-43" value="身份证号" style="shape=partialRectangle;top=0;left=0;right=0;bottom=0;align=left;verticalAlign=top;fillColor=none;spacingLeft=34;spacingRight=4;overflow=hidden;rotatable=0;points=[[0,0.5],[1,0.5]];portConstraint=eastwest;dropTarget=0;fontSize=12;" vertex="1" parent="FU6Oj2-tmfLEPDodRu47-38">
          <mxGeometry y="93" width="160" height="26" as="geometry" />
        </mxCell>
        <mxCell id="FU6Oj2-tmfLEPDodRu47-44" value="" style="shape=partialRectangle;top=0;left=0;bottom=0;fillColor=none;align=left;verticalAlign=top;spacingLeft=4;spacingRight=4;overflow=hidden;rotatable=0;points=[];portConstraint=eastwest;part=1;fontSize=12;" vertex="1" connectable="0" parent="FU6Oj2-tmfLEPDodRu47-43">
          <mxGeometry width="30" height="26" as="geometry" />
        </mxCell>
        <mxCell id="FU6Oj2-tmfLEPDodRu47-45" value="证件名称" style="shape=partialRectangle;top=0;left=0;right=0;bottom=0;align=left;verticalAlign=top;fillColor=none;spacingLeft=34;spacingRight=4;overflow=hidden;rotatable=0;points=[[0,0.5],[1,0.5]];portConstraint=eastwest;dropTarget=0;fontSize=12;" vertex="1" parent="FU6Oj2-tmfLEPDodRu47-38">
          <mxGeometry y="119" width="160" height="26" as="geometry" />
        </mxCell>
        <mxCell id="FU6Oj2-tmfLEPDodRu47-46" value="" style="shape=partialRectangle;top=0;left=0;bottom=0;fillColor=none;align=left;verticalAlign=top;spacingLeft=4;spacingRight=4;overflow=hidden;rotatable=0;points=[];portConstraint=eastwest;part=1;fontSize=12;" vertex="1" connectable="0" parent="FU6Oj2-tmfLEPDodRu47-45">
          <mxGeometry width="30" height="26" as="geometry" />
        </mxCell>
        <mxCell id="FU6Oj2-tmfLEPDodRu47-47" value="" style="shape=partialRectangle;top=0;left=0;right=0;bottom=0;align=left;verticalAlign=top;fillColor=none;spacingLeft=34;spacingRight=4;overflow=hidden;rotatable=0;points=[[0,0.5],[1,0.5]];portConstraint=eastwest;dropTarget=0;fontSize=12;" vertex="1" parent="FU6Oj2-tmfLEPDodRu47-38">
          <mxGeometry y="145" width="160" height="10" as="geometry" />
        </mxCell>
        <mxCell id="FU6Oj2-tmfLEPDodRu47-48" value="" style="shape=partialRectangle;top=0;left=0;bottom=0;fillColor=none;align=left;verticalAlign=top;spacingLeft=4;spacingRight=4;overflow=hidden;rotatable=0;points=[];portConstraint=eastwest;part=1;fontSize=12;" vertex="1" connectable="0" parent="FU6Oj2-tmfLEPDodRu47-47">
          <mxGeometry width="30" height="10" as="geometry" />
        </mxCell>
        <mxCell id="FU6Oj2-tmfLEPDodRu47-49" value="用户域" style="ellipse;whiteSpace=wrap;html=1;dashed=1;align=left;" vertex="1" parent="1">
          <mxGeometry x="1161" y="1729" width="322" height="168" as="geometry" />
        </mxCell>
        <mxCell id="FU6Oj2-tmfLEPDodRu47-50" style="edgeStyle=orthogonalEdgeStyle;rounded=0;orthogonalLoop=1;jettySize=auto;html=1;entryX=0;entryY=0.5;entryDx=0;entryDy=0;startArrow=none;startFill=0;endArrow=classic;endFill=1;strokeColor=#000000;strokeWidth=1;fontSize=14;" edge="1" parent="1" source="FU6Oj2-tmfLEPDodRu47-30" target="FU6Oj2-tmfLEPDodRu47-39">
          <mxGeometry relative="1" as="geometry" />
        </mxCell>
        <mxCell id="FU6Oj2-tmfLEPDodRu47-51" value="企业主体" style="swimlane;fontStyle=0;childLayout=stackLayout;horizontal=1;startSize=26;fillColor=none;horizontalStack=0;resizeParent=1;resizeParentMax=0;resizeLast=0;collapsible=1;marginBottom=0;" vertex="1" parent="1">
          <mxGeometry x="2850" y="1669" width="185" height="208" as="geometry" />
        </mxCell>
        <mxCell id="FU6Oj2-tmfLEPDodRu47-52" value="企业主体id" style="text;strokeColor=none;fillColor=none;align=left;verticalAlign=top;spacingLeft=4;spacingRight=4;overflow=hidden;rotatable=0;points=[[0,0.5],[1,0.5]];portConstraint=eastwest;" vertex="1" parent="FU6Oj2-tmfLEPDodRu47-51">
          <mxGeometry y="26" width="185" height="26" as="geometry" />
        </mxCell>
        <mxCell id="FU6Oj2-tmfLEPDodRu47-53" value="营业执照编码" style="text;strokeColor=none;fillColor=none;align=left;verticalAlign=top;spacingLeft=4;spacingRight=4;overflow=hidden;rotatable=0;points=[[0,0.5],[1,0.5]];portConstraint=eastwest;" vertex="1" parent="FU6Oj2-tmfLEPDodRu47-51">
          <mxGeometry y="52" width="185" height="26" as="geometry" />
        </mxCell>
        <mxCell id="FU6Oj2-tmfLEPDodRu47-54" value="法人名称" style="text;strokeColor=none;fillColor=none;align=left;verticalAlign=top;spacingLeft=4;spacingRight=4;overflow=hidden;rotatable=0;points=[[0,0.5],[1,0.5]];portConstraint=eastwest;" vertex="1" parent="FU6Oj2-tmfLEPDodRu47-51">
          <mxGeometry y="78" width="185" height="26" as="geometry" />
        </mxCell>
        <mxCell id="FU6Oj2-tmfLEPDodRu47-55" value="组织架构代码" style="text;strokeColor=none;fillColor=none;align=left;verticalAlign=top;spacingLeft=4;spacingRight=4;overflow=hidden;rotatable=0;points=[[0,0.5],[1,0.5]];portConstraint=eastwest;" vertex="1" parent="FU6Oj2-tmfLEPDodRu47-51">
          <mxGeometry y="104" width="185" height="26" as="geometry" />
        </mxCell>
        <mxCell id="FU6Oj2-tmfLEPDodRu47-56" value="营业执照照片" style="text;strokeColor=none;fillColor=none;align=left;verticalAlign=top;spacingLeft=4;spacingRight=4;overflow=hidden;rotatable=0;points=[[0,0.5],[1,0.5]];portConstraint=eastwest;" vertex="1" parent="FU6Oj2-tmfLEPDodRu47-51">
          <mxGeometry y="130" width="185" height="26" as="geometry" />
        </mxCell>
        <mxCell id="FU6Oj2-tmfLEPDodRu47-57" value="企业类型(门店,供应商)" style="text;strokeColor=none;fillColor=none;align=left;verticalAlign=top;spacingLeft=4;spacingRight=4;overflow=hidden;rotatable=0;points=[[0,0.5],[1,0.5]];portConstraint=eastwest;" vertex="1" parent="FU6Oj2-tmfLEPDodRu47-51">
          <mxGeometry y="156" width="185" height="26" as="geometry" />
        </mxCell>
        <mxCell id="FU6Oj2-tmfLEPDodRu47-58" value="状态" style="text;strokeColor=none;fillColor=none;align=left;verticalAlign=top;spacingLeft=4;spacingRight=4;overflow=hidden;rotatable=0;points=[[0,0.5],[1,0.5]];portConstraint=eastwest;" vertex="1" parent="FU6Oj2-tmfLEPDodRu47-51">
          <mxGeometry y="182" width="185" height="26" as="geometry" />
        </mxCell>
        <mxCell id="FU6Oj2-tmfLEPDodRu47-59" style="edgeStyle=none;rounded=0;orthogonalLoop=1;jettySize=auto;html=1;dashed=1;startArrow=none;startFill=0;endArrow=classic;endFill=1;strokeColor=#1A1A1A;strokeWidth=1;fontSize=13;exitX=1;exitY=0.5;exitDx=0;exitDy=0;entryX=0;entryY=0.25;entryDx=0;entryDy=0;" edge="1" parent="1" source="FU6Oj2-tmfLEPDodRu47-9" target="FU6Oj2-tmfLEPDodRu47-12">
          <mxGeometry relative="1" as="geometry">
            <mxPoint x="1548.1" y="990.558" as="targetPoint" />
          </mxGeometry>
        </mxCell>
        <mxCell id="FU6Oj2-tmfLEPDodRu47-60" style="edgeStyle=none;rounded=0;orthogonalLoop=1;jettySize=auto;html=1;entryX=0;entryY=0.5;entryDx=0;entryDy=0;dashed=1;startArrow=none;startFill=0;endArrow=classic;endFill=1;strokeColor=#1A1A1A;strokeWidth=1;fontSize=13;exitX=1;exitY=0.5;exitDx=0;exitDy=0;" edge="1" parent="1" source="FU6Oj2-tmfLEPDodRu47-9" target="FU6Oj2-tmfLEPDodRu47-14">
          <mxGeometry relative="1" as="geometry">
            <mxPoint x="1550" y="1059" as="targetPoint" />
          </mxGeometry>
        </mxCell>
        <mxCell id="FU6Oj2-tmfLEPDodRu47-61" style="edgeStyle=orthogonalEdgeStyle;rounded=0;orthogonalLoop=1;jettySize=auto;html=1;startArrow=none;startFill=0;endArrow=classic;endFill=1;strokeColor=#1A1A1A;strokeWidth=1;fontSize=13;exitX=1;exitY=0.5;exitDx=0;exitDy=0;entryX=1;entryY=0.5;entryDx=0;entryDy=0;" edge="1" parent="1" source="FU6Oj2-tmfLEPDodRu47-18" target="FU6Oj2-tmfLEPDodRu47-65">
          <mxGeometry relative="1" as="geometry">
            <mxPoint x="1245" y="1321" as="targetPoint" />
            <Array as="points">
              <mxPoint x="1470" y="1148" />
              <mxPoint x="1470" y="1289" />
            </Array>
          </mxGeometry>
        </mxCell>
        <mxCell id="FU6Oj2-tmfLEPDodRu47-62" value="&lt;font style=&quot;font-size: 11px&quot; color=&quot;#b3b3b3&quot;&gt;这里userId既代表用户id,又代表关联的账号id,用的同一个id&lt;/font&gt;" style="text;html=1;strokeColor=none;fillColor=none;align=center;verticalAlign=middle;whiteSpace=wrap;rounded=0;fontSize=13;" vertex="1" parent="1">
          <mxGeometry x="1119" y="1110" width="160" height="20" as="geometry" />
        </mxCell>
        <mxCell id="FU6Oj2-tmfLEPDodRu47-63" value="&lt;font color=&quot;#b3b3b3&quot;&gt;企业客户和个人客户id用同一个发号器&lt;/font&gt;" style="text;html=1;strokeColor=none;fillColor=none;align=center;verticalAlign=middle;whiteSpace=wrap;rounded=0;fontSize=10;" vertex="1" parent="1">
          <mxGeometry x="973.04" y="1118" width="120" height="20" as="geometry" />
        </mxCell>
        <mxCell id="FU6Oj2-tmfLEPDodRu47-64" value="账号" style="swimlane;fontStyle=0;childLayout=stackLayout;horizontal=1;startSize=26;horizontalStack=0;resizeParent=1;resizeParentMax=0;resizeLast=0;collapsible=1;marginBottom=0;" vertex="1" parent="1">
          <mxGeometry x="1279" y="1250" width="159" height="104" as="geometry" />
        </mxCell>
        <mxCell id="FU6Oj2-tmfLEPDodRu47-65" value="userId" style="text;strokeColor=none;fillColor=none;align=left;verticalAlign=top;spacingLeft=4;spacingRight=4;overflow=hidden;rotatable=0;points=[[0,0.5],[1,0.5]];portConstraint=eastwest;" vertex="1" parent="FU6Oj2-tmfLEPDodRu47-64">
          <mxGeometry y="26" width="159" height="26" as="geometry" />
        </mxCell>
        <mxCell id="FU6Oj2-tmfLEPDodRu47-66" value="电话" style="text;strokeColor=none;fillColor=none;align=left;verticalAlign=top;spacingLeft=4;spacingRight=4;overflow=hidden;rotatable=0;points=[[0,0.5],[1,0.5]];portConstraint=eastwest;" vertex="1" parent="FU6Oj2-tmfLEPDodRu47-64">
          <mxGeometry y="52" width="159" height="26" as="geometry" />
        </mxCell>
        <mxCell id="FU6Oj2-tmfLEPDodRu47-67" value="姓名" style="text;strokeColor=none;fillColor=none;align=left;verticalAlign=top;spacingLeft=4;spacingRight=4;overflow=hidden;rotatable=0;points=[[0,0.5],[1,0.5]];portConstraint=eastwest;" vertex="1" parent="FU6Oj2-tmfLEPDodRu47-64">
          <mxGeometry y="78" width="159" height="26" as="geometry" />
        </mxCell>
        <mxCell id="FU6Oj2-tmfLEPDodRu47-68" value="&lt;font color=&quot;#cc0000&quot;&gt;目前的C端用户不在这份数据里, 需要完善&lt;/font&gt;" style="text;html=1;strokeColor=none;fillColor=none;align=center;verticalAlign=middle;whiteSpace=wrap;rounded=0;fontSize=11;" vertex="1" parent="1">
          <mxGeometry x="1159" y="1160" width="120" height="34" as="geometry" />
        </mxCell>
        <mxCell id="FU6Oj2-tmfLEPDodRu47-69" style="edgeStyle=orthogonalEdgeStyle;rounded=0;orthogonalLoop=1;jettySize=auto;html=1;entryX=1;entryY=0.5;entryDx=0;entryDy=0;startArrow=none;startFill=0;endArrow=classic;endFill=1;strokeColor=#000000;strokeWidth=1;fontSize=11;" edge="1" parent="1" source="FU6Oj2-tmfLEPDodRu47-20" target="FU6Oj2-tmfLEPDodRu47-39">
          <mxGeometry relative="1" as="geometry">
            <Array as="points">
              <mxPoint x="1200" y="1205" />
              <mxPoint x="1200" y="1205" />
            </Array>
          </mxGeometry>
        </mxCell>
        <mxCell id="FU6Oj2-tmfLEPDodRu47-70" style="edgeStyle=orthogonalEdgeStyle;rounded=0;orthogonalLoop=1;jettySize=auto;html=1;entryX=1;entryY=0.5;entryDx=0;entryDy=0;startArrow=none;startFill=0;endArrow=classic;endFill=1;strokeColor=#000000;strokeWidth=1;fontSize=11;" edge="1" parent="1" source="FU6Oj2-tmfLEPDodRu47-11" target="FU6Oj2-tmfLEPDodRu47-28">
          <mxGeometry relative="1" as="geometry" />
        </mxCell>
      </root>
    </mxGraphModel>
  </diagram>
</mxfile>
